<?xml version="1.0" encoding="utf-8"?>
<!-- Generator: Adobe Illustrator 28.0.0, SVG Export Plug-In . SVG Version: 6.00 Build 0)  -->
<!DOCTYPE svg PUBLIC "-//W3C//DTD SVG 1.1//EN" "http://www.w3.org/Graphics/SVG/1.1/DTD/svg11.dtd" [
	<!ENTITY ns_extend "http://ns.adobe.com/Extensibility/1.0/">
	<!ENTITY ns_ai "http://ns.adobe.com/AdobeIllustrator/10.0/">
	<!ENTITY ns_graphs "http://ns.adobe.com/Graphs/1.0/">
	<!ENTITY ns_vars "http://ns.adobe.com/Variables/1.0/">
	<!ENTITY ns_imrep "http://ns.adobe.com/ImageReplacement/1.0/">
	<!ENTITY ns_sfw "http://ns.adobe.com/SaveForWeb/1.0/">
	<!ENTITY ns_custom "http://ns.adobe.com/GenericCustomNamespace/1.0/">
	<!ENTITY ns_adobe_xpath "http://ns.adobe.com/XPath/1.0/">
]>
<svg version="1.1" id="Layer_1" xmlns:x="&ns_extend;" xmlns:i="&ns_ai;" xmlns:graph="&ns_graphs;"
	 xmlns="http://www.w3.org/2000/svg" xmlns:xlink="http://www.w3.org/1999/xlink" x="0px" y="0px" viewBox="0 0 576 512"
	 style="enable-background:new 0 0 576 512;" xml:space="preserve">
<style type="text/css">
	.st0{fill:#FF0000;}
</style>
<metadata>
	<sfw  xmlns="&ns_sfw;">
		<slices></slices>
		<sliceSourceBounds  bottomLeftOrigin="true" height="384" width="546.1" x="14.9" y="64"></sliceSourceBounds>
	</sfw>
</metadata>
<path class="st0" d="M549.7,124.1c-6.3-23.7-24.8-42.3-48.3-48.6C458.8,64,288,64,288,64S117.2,64,74.6,75.5
	c-23.5,6.3-42,24.9-48.3,48.6c-11.4,42.9-11.4,132.3-11.4,132.3s0,89.4,11.4,132.3c6.3,23.6,24.8,41.5,48.3,47.8
	C117.2,448,288,448,288,448s170.8,0,213.4-11.5c23.5-6.3,42-24.2,48.3-47.8c11.4-42.9,11.4-132.3,11.4-132.3
	S561.1,166.9,549.7,124.1z M232.1,337.6V175.2l142.7,81.2L232.1,337.6L232.1,337.6z"/>
</svg>
